<svg width="154" height="142" viewBox="0 0 154 142" fill="none" xmlns="http://www.w3.org/2000/svg">
<g clip-path="url(#clip0_17_3)">
<path d="M140.301 113.765L127.8 95.2368C127.8 95.2368 146.732 101.831 144.584 113.765H140.301Z" fill="#DEE3F0"/>
<path d="M10.7165 113.887L10.2419 113.878C10.4255 108.613 10.9885 103.368 11.9266 98.1839C13.9787 87.0843 17.3911 79.7947 22.069 76.5175L22.3415 76.905C11.414 84.5604 10.722 113.595 10.7165 113.887Z" fill="#DEE3F0"/>
<path d="M16.6487 113.774L16.1741 113.765C16.1843 113.24 16.4809 100.882 21.3571 97.4658L21.6297 97.8533C16.9502 101.131 16.651 113.648 16.6487 113.774Z" fill="#DEE3F0"/>
<path d="M25.0414 76.9479C26.3519 76.9479 27.4143 75.8879 27.4143 74.5803C27.4143 73.2727 26.3519 72.2127 25.0414 72.2127C23.7309 72.2127 22.6685 73.2727 22.6685 74.5803C22.6685 75.8879 23.7309 76.9479 25.0414 76.9479Z" fill="#6C63FF"/>
<path d="M23.8663 97.3095C25.1768 97.3095 26.2392 96.2494 26.2392 94.9418C26.2392 93.6342 25.1768 92.5742 23.8663 92.5742C22.5558 92.5742 21.4934 93.6342 21.4934 94.9418C21.4934 96.2494 22.5558 97.3095 23.8663 97.3095Z" fill="#6C63FF"/>
<path d="M15.5426 78.3672C15.9886 81.2093 14.8263 83.7513 14.8263 83.7513C14.8263 83.7513 12.941 81.6854 12.495 78.8433C12.0491 76.0012 13.2114 73.4592 13.2114 73.4592C13.2114 73.4592 15.0967 75.5251 15.5426 78.3672Z" fill="#DEE3F0"/>
<path d="M23.2989 85.2698C20.5718 86.2031 17.8606 85.5041 17.8606 85.5041C17.8606 85.5041 19.5709 83.2917 22.2981 82.3584C25.0252 81.425 27.7364 82.1241 27.7364 82.1241C27.7364 82.1241 26.0261 84.3364 23.2989 85.2698Z" fill="#DEE3F0"/>
<path d="M23.3865 103.302C22.1522 103.689 20.8378 103.745 19.5747 103.466C20.3767 102.447 21.4569 101.681 22.685 101.261C23.9132 100.841 25.237 100.784 26.4969 101.097C25.6715 102.091 24.5989 102.851 23.3865 103.302V103.302Z" fill="#DEE3F0"/>
<path d="M153.763 114.238H0.237288C0.174355 114.238 0.114004 114.213 0.0695035 114.169C0.0250034 114.124 0 114.064 0 114.001C0 113.938 0.0250034 113.878 0.0695035 113.834C0.114004 113.789 0.174355 113.764 0.237288 113.764H153.763C153.826 113.764 153.886 113.789 153.93 113.834C153.975 113.878 154 113.938 154 114.001C154 114.064 153.975 114.124 153.93 114.169C153.886 114.213 153.826 114.238 153.763 114.238Z" fill="#DEE3F0"/>
<path d="M97.2388 125.153L95.2975 130.194L74.885 125.122L77.7501 117.681L97.2388 125.153Z" fill="#FFB7B7"/>
<path d="M102.632 125.744L96.3721 142L96.166 141.921C94.4843 141.276 93.1281 139.991 92.3958 138.349C91.6635 136.707 91.615 134.841 92.261 133.163L92.2611 133.163L96.0842 123.234L102.632 125.744Z" fill="#2F2E41"/>
<path d="M66.2211 62.0297L57.3256 62.8607L56.8843 89.2697C57.0023 90.5639 57.6234 91.7607 58.6149 92.6035C59.6063 93.4464 60.8891 93.8683 62.1885 93.779L67.8284 93.3913L66.2211 62.0297Z" fill="#ECF1FF"/>
<path d="M97.5817 60.7298L91.4951 60.6517L91.1346 92.0311C92.4796 92.0758 93.8194 91.8436 95.0705 91.3488C96.3215 90.8541 97.457 90.1074 98.4061 89.1554C99.3551 88.2034 100.097 87.0665 100.587 85.8156C101.076 84.5646 101.301 83.2266 101.249 81.8848L97.5817 60.7298Z" fill="#ECF1FF"/>
<path d="M62.2646 103.179C62.1204 104.089 61.9112 104.988 61.6385 105.868C61.3313 106.73 60.8571 107.527 60.5763 108.397C59.6812 111.172 60.9221 114.267 62.9041 116.409C64.6229 118.259 66.8414 119.573 69.2922 120.194C71.0802 120.642 72.9393 120.707 74.7819 120.769C79.8842 120.942 85.1179 121.096 89.9526 119.46C91.4801 118.931 92.9555 118.262 94.3602 117.462C94.8037 117.252 95.1944 116.945 95.5038 116.564C95.8726 116.04 95.9198 115.361 95.9165 114.721C95.9057 112.562 95.4672 110.415 95.5713 108.259C95.6289 107.065 95.8529 105.872 95.7427 104.682C95.5901 103.33 95.0225 102.058 94.1176 101.04C93.2126 100.023 92.0146 99.3089 90.6875 98.9967C89.316 98.7028 87.8934 98.8629 86.4971 98.9969C82.8726 99.3444 79.2326 99.5068 75.5914 99.4834C71.8711 99.4597 68.1738 98.8931 64.472 98.8339C63.3772 98.8164 63.3993 99.1532 63.0508 100.21C62.7298 101.183 62.4673 102.175 62.2646 103.179V103.179Z" fill="#2F2E41"/>
<path d="M47.7167 101.425C46.7163 101.174 45.6855 101.064 44.6546 101.1C43.5714 101.16 42.5134 101.449 41.5509 101.948C40.5884 102.447 39.7435 103.145 39.0723 103.996C38.4011 104.846 37.919 105.829 37.6581 106.88C37.3972 107.931 37.3635 109.025 37.5592 110.089C37.809 111.243 38.2173 112.356 38.7726 113.398C39.5847 115.042 40.5586 116.683 42.062 117.736C42.9415 118.353 43.9593 118.737 44.9651 119.115L52.883 122.091C54.0479 122.529 55.2129 122.967 56.3892 123.373C62.2991 125.411 68.4606 126.634 74.7025 127.006C76.6037 127.119 78.5337 127.15 80.3885 126.718C80.8287 126.616 81.2982 126.463 81.553 126.091C81.7039 125.828 81.7929 125.535 81.8132 125.233L82.3004 121.83C82.369 121.351 82.4351 120.846 82.259 120.395C82.0358 119.823 81.4764 119.463 80.9429 119.158C75.7374 116.174 69.6593 114.529 65.2778 110.434C64.2463 109.47 63.3831 107.943 62.1298 107.288C60.7087 106.545 59.035 106.122 57.566 105.437C54.3546 103.942 51.1972 102.223 47.7167 101.425Z" fill="#2F2E41"/>
<path opacity="0.1" d="M55.6217 106.013C58.4204 106.888 70.2364 112.95 72.2617 115.067C71.9902 115.164 62.7794 110.014 62.503 109.931C59.9907 109.179 57.4645 108.421 55.0787 107.32C54.5987 107.099 51.9606 106.058 52.0801 105.454C52.2149 104.772 55.1249 105.858 55.6217 106.013Z" fill="black"/>
<path d="M72.5121 53.1534L64.9768 58.8621C64.9768 58.8621 57.0256 59.1103 57.2942 64.1818C57.5629 69.2532 60.7452 93.265 60.7452 93.265L61.4356 101.527L74.5323 105.25C81.6085 107.262 89.0847 107.422 96.2409 105.715V105.715L94.6845 97.426C94.6845 97.426 100.987 59.7828 97.19 58.1254C93.3934 56.4681 91.0205 56.9416 91.0205 56.9416L86.2617 52.7982L72.5121 53.1534Z" fill="#ECF1FF"/>
<path d="M94.8172 43.9324C94.8172 51.3433 87.9494 50.2224 79.4775 50.2224C71.0056 50.2224 64.1379 51.3433 64.1379 43.9324C64.1379 36.5215 67.4926 23.3851 79.4775 23.3851C91.8753 23.3851 94.8172 36.5215 94.8172 43.9324Z" fill="#2F2E41"/>
<path d="M87.4514 46.4439C91.4825 42.4218 91.4825 35.9007 87.4514 31.8786C83.4204 27.8565 76.8848 27.8565 72.8537 31.8786C68.8227 35.9007 68.8227 42.4218 72.8537 46.4439C76.8848 50.466 83.4204 50.466 87.4514 46.4439Z" fill="#FFB7B7"/>
<path d="M67.5 38.9004H71.5826L73.3837 33.8684L73.7438 38.9004H75.6951L76.7458 35.9651L76.9559 38.9004H91.4551C91.4551 36.0089 90.3038 33.2357 88.2547 31.1911C86.2055 29.1465 83.4262 27.9978 80.5282 27.9978H78.4268C75.5289 27.9978 72.7496 29.1465 70.7004 31.1911C68.6512 33.2357 67.5 36.0089 67.5 38.9004V38.9004Z" fill="#2F2E41"/>
<path d="M89.8341 54.3372H69.19V79.1972H89.8341V54.3372Z" fill="#6C63FF"/>
<path d="M70.3277 124.916L72.2692 129.957L92.6817 124.885L89.8164 117.445L70.3277 124.916Z" fill="#FFB7B7"/>
<path d="M71.4823 122.998L75.3054 132.926L75.3056 132.926C75.9516 134.604 75.9031 136.47 75.1707 138.112C74.4384 139.755 73.0822 141.04 71.4005 141.684L71.1944 141.763L64.9349 125.508L71.4823 122.998Z" fill="#2F2E41"/>
<path d="M111.13 99.495C112.77 99.0847 114.47 98.9688 116.151 99.1527C117.493 99.3003 118.875 99.6729 119.855 100.6C121.048 101.728 121.431 103.473 121.463 105.112C121.516 108.378 120.43 111.56 118.392 114.115C117.895 114.762 117.303 115.33 116.637 115.802C115.918 116.251 115.152 116.619 114.352 116.9L96.6202 123.879C91.9553 125.715 87.274 127.556 82.4082 128.766C82.1437 128.894 81.8392 128.911 81.5619 128.814C81.2845 128.718 81.0569 128.515 80.9292 128.251C80.9253 128.243 80.9215 128.235 80.9178 128.227C79.3642 126.013 78.0608 123.634 77.0314 121.134C76.9827 121.074 76.949 121.004 76.9332 120.929C76.9175 120.854 76.9201 120.776 76.9409 120.702C76.9617 120.628 77 120.56 77.0526 120.504C77.1052 120.448 77.1706 120.405 77.2432 120.38L89.7852 113.19C90.6835 112.675 91.592 112.152 92.3379 111.435C92.88 110.911 93.3238 110.294 93.6485 109.614C93.9085 109.072 93.9327 107.794 94.2648 107.393C94.5899 107.001 95.7022 106.97 96.2159 106.816C96.9403 106.594 97.6497 106.327 98.3398 106.015C101.145 104.762 103.644 102.943 106.333 101.476C107.842 100.616 109.454 99.95 111.13 99.495V99.495Z" fill="#2F2E41"/>
<path opacity="0.1" d="M104.02 104.865C101.865 106.479 99.0753 107.964 96.9397 109.621C96.2108 110.187 84.0606 117.003 83.8888 117.908C85.8812 118.243 98.5729 109.384 100.389 108.5C102.205 107.616 103.814 106.369 105.409 105.132C105.816 104.816 107.539 103.868 106.372 103.516C105.714 103.317 104.505 104.542 104.02 104.865Z" fill="black"/>
<path d="M142.749 42.5497C146.844 42.5497 150.164 39.2374 150.164 35.1514C150.164 31.0655 146.844 27.7531 142.749 27.7531C138.654 27.7531 135.335 31.0655 135.335 35.1514C135.335 39.2374 138.654 42.5497 142.749 42.5497Z" fill="#E3EBFF" fill-opacity="0.15"/>
<path d="M129.027 43.8748C131.899 43.8748 134.228 41.5512 134.228 38.6849C134.228 35.8186 131.899 33.4951 129.027 33.4951C126.154 33.4951 123.825 35.8186 123.825 38.6849C123.825 41.5512 126.154 43.8748 129.027 43.8748Z" fill="#E3EBFF" fill-opacity="0.15"/>
<path d="M33.7455 40.4893C36.0489 40.4893 37.9161 38.6262 37.9161 36.328C37.9161 34.0297 36.0489 32.1666 33.7455 32.1666C31.4422 32.1666 29.575 34.0297 29.575 36.328C29.575 38.6262 31.4422 40.4893 33.7455 40.4893Z" fill="#E3EBFF" fill-opacity="0.15"/>
<path d="M40.612 43.2876C42.2278 43.2876 43.5376 41.9806 43.5376 40.3684C43.5376 38.7562 42.2278 37.4493 40.612 37.4493C38.9962 37.4493 37.6863 38.7562 37.6863 40.3684C37.6863 41.9806 38.9962 43.2876 40.612 43.2876Z" fill="#E3EBFF" fill-opacity="0.15"/>
<path d="M81.0703 6.36192C82.831 6.36192 84.2584 4.93775 84.2584 3.18096C84.2584 1.42416 82.831 0 81.0703 0C79.3096 0 77.8823 1.42416 77.8823 3.18096C77.8823 4.93775 79.3096 6.36192 81.0703 6.36192Z" fill="#E3EBFF" fill-opacity="0.15"/>
<path opacity="0.17" d="M62.0714 70.2003L62.3564 68.0055C62.3564 68.0055 72.9866 68.7798 71.3256 71.3841C69.6646 73.9885 65.6307 74.2253 65.6307 74.2253L62.0714 70.2003Z" fill="#2F2E41"/>
<path d="M70.0955 60.6571C70.7045 60.724 71.291 60.9245 71.813 61.2444C72.3351 61.5642 72.7797 61.9954 73.115 62.507V62.507C73.4204 62.9738 73.6282 63.4974 73.7258 64.0463C73.8234 64.5953 73.8088 65.1583 73.6828 65.7015C73.5569 66.2446 73.3222 66.7568 72.9929 67.2072C72.6636 67.6576 72.2464 68.037 71.7665 68.3225C71.5905 68.4262 71.4068 68.5163 71.217 68.592L64.683 88.5339C64.4937 88.9273 64.2283 89.2796 63.902 89.5704C63.5758 89.8612 63.1952 90.0848 62.7821 90.2284C62.3689 90.3719 61.9315 90.4325 61.4948 90.4068C61.0581 90.3811 60.6308 90.2695 60.2374 90.0784C59.8441 89.8874 59.4925 89.6206 59.2029 89.2935C58.9132 88.9664 58.6912 88.5854 58.5496 88.1724C58.408 87.7594 58.3496 87.3226 58.3778 86.887C58.406 86.4515 58.5202 86.0257 58.7138 85.6343L65.6626 65.9138C65.4733 65.2614 65.4481 64.5724 65.5893 63.9079C65.7304 63.2434 66.0336 62.6238 66.4719 62.1041C66.9102 61.5843 67.4701 61.1804 68.1022 60.928C68.7342 60.6756 69.4189 60.5826 70.0955 60.6571Z" fill="#FFB7B7"/>
<path d="M62.1689 68.1925C62.1689 68.1925 65.9129 74.575 71.3256 71.3841L66.08 91.4138H61.6603L57.0883 90.5618L58.3685 82.2864L62.1689 68.1925Z" fill="#ECF1FF"/>
<path d="M88.9018 72.5549L85.8002 68.3062C85.8002 68.3062 87.2909 63.8994 93.071 65.5109C93.071 65.5109 96.7491 73.7256 88.9018 72.5549Z" fill="#ECF1FF"/>
<path opacity="0.17" d="M88.9018 72.5549L85.8002 68.3062C85.8002 68.3062 87.2909 63.8994 93.071 65.5109C93.071 65.5109 96.7491 73.7256 88.9018 72.5549Z" fill="#2F2E41"/>
<path d="M89.723 57.7109C90.6177 58.1259 91.3335 58.8476 91.74 59.7447C92.1464 60.6419 92.2167 61.6548 91.9379 62.5992L98.8866 82.3197C99.0803 82.7111 99.1945 83.1368 99.2227 83.5724C99.2509 84.008 99.1925 84.4449 99.0509 84.8579C98.9094 85.2709 98.6874 85.6519 98.3977 85.979C98.108 86.3061 97.7564 86.5729 97.3631 86.764C96.9697 86.955 96.5424 87.0666 96.1057 87.0924C95.669 87.1181 95.2315 87.0574 94.8183 86.9139C94.4052 86.7703 94.0246 86.5467 93.6984 86.2559C93.3721 85.965 93.1067 85.6127 92.9174 85.2192L86.3834 65.2773C86.1936 65.2016 86.0099 65.1116 85.8339 65.0078C85.354 64.7223 84.9369 64.343 84.6075 63.8926C84.2782 63.4422 84.0435 62.93 83.9176 62.3868C83.7916 61.8436 83.777 61.2807 83.8746 60.7317C83.9722 60.1827 84.18 59.6591 84.4855 59.1923V59.1923C84.8207 58.6807 85.2653 58.2495 85.7874 57.9297C86.3094 57.6099 86.896 57.4093 87.5049 57.3424C88.2642 57.2566 89.0325 57.3842 89.723 57.7109Z" fill="#FFB7B7"/>
<path d="M85.8002 68.3062C85.8002 68.3062 90.9175 71.4043 93.071 65.5109L100.282 84.4551L98.1392 88.1942L97.8293 88.22C96.5511 88.3263 95.2661 88.1214 94.0847 87.623C92.9032 87.1246 91.8607 86.3474 91.0467 85.3584V85.3584C89.3863 83.341 88.256 80.9426 87.758 78.3799L85.8002 68.3062Z" fill="#ECF1FF"/>
</g>
<defs>
<clipPath id="clip0_17_3">
<rect width="154" height="142" fill="white"/>
</clipPath>
</defs>
</svg>
